<?xml version="1.0" encoding="UTF-8"?>
<svg xmlns="http://www.w3.org/2000/svg" width="1800" height="320" viewBox="0 0 1800 320">
  <defs>
    <style>
      .bg { fill: #f8f3ea; }
      .navy { fill: #10263f; }
      .gold { fill: #b96c3a; }
      .leaf { fill: #caa15a; opacity: 0.9; }
      .line { stroke: #caa15a; stroke-width: 2; fill: none; }
      .title { font-family: Georgia, 'Times New Roman', serif; font-weight: 700; letter-spacing: 4px; }
      .subtitle { font-family: Georgia, 'Times New Roman', serif; font-weight: 600; letter-spacing: 8px; }
    </style>
  </defs>
  <rect width="1800" height="320" class="bg"/>
  <g transform="translate(40,185)" class="navy">
    <rect x="0" y="0" width="55" height="80" rx="5"/>
    <rect x="55" y="4" width="42" height="72" rx="4"/>
    <g stroke="#ffffff" stroke-width="2">
      <line x1="63" y1="10" x2="63" y2="68"/>
      <line x1="71" y1="10" x2="71" y2="68"/>
      <line x1="79" y1="10" x2="79" y2="68"/>
    </g>
  </g>
  <g transform="translate(180,40)" class="navy">
    <circle cx="40" cy="35" r="10"/>
    <path d="M40 47 C20 70, 18 105, 30 145 C36 165, 20 195, 0 220 L28 220
             C48 195, 62 165, 62 140 C62 100, 72 70, 92 52 Z"/>
    <circle cx="145" cy="35" r="10"/>
    <path d="M145 47 C165 70, 167 105, 155 145 C149 165, 165 195, 185 220 L157 220
             C137 195, 123 165, 123 140 C123 100, 113 70, 93 52 Z"/>
    <rect x="84" y="65" width="18" height="5" rx="2.5"/>
  </g>
  <g class="leaf">
    <path d="M560 220 C520 190, 500 175, 470 165 C505 165, 535 182, 560 220 Z"/>
    <path d="M1240 220 C1280 190, 1300 175, 1330 165 C1295 165, 1265 182, 1240 220 Z"/>
    <path d="M120 130 C95 110, 85 90, 80 65 C100 80, 112 102, 120 130 Z"/>
    <path d="M1680 130 C1705 110, 1715 90, 1720 65 C1700 80, 1688 102, 1680 130 Z"/>
  </g>
  <path d="M530 60 H810" class="line"/>
  <path d="M990 60 H1270" class="line"/>
  <text x="900" y="155" text-anchor="middle" class="navy title" font-size="110">BALFOLK</text>
  <text x="900" y="225" text-anchor="middle" class="gold subtitle" font-size="54">CALENDAR</text>
  <g transform="translate(860,240)">
    <rect x="0" y="0" width="80" height="60" rx="8" fill="#ffffff" stroke="#10263f" stroke-width="5"/>
    <line x1="20" y1="-8" x2="20" y2="12" stroke="#10263f" stroke-width="5" stroke-linecap="round"/>
    <line x1="60" y1="-8" x2="60" y2="12" stroke="#10263f" stroke-width="5" stroke-linecap="round"/>
    <g fill="#10263f">
      <circle cx="20" cy="25" r="3"/>
      <circle cx="40" cy="25" r="3"/>
      <circle cx="60" cy="25" r="3"/>
      <circle cx="20" cy="43" r="3"/>
      <circle cx="40" cy="43" r="3"/>
      <circle cx="60" cy="43" r="3"/>
    </g>
  </g>
  <g transform="translate(1600,55)" class="navy">
    <ellipse cx="0" cy="140" rx="30" ry="62"/>
    <ellipse cx="0" cy="82" rx="20" ry="42"/>
    <rect x="-2.5" y="0" width="5" height="82"/>
    <line x1="0" y1="0" x2="32" y2="205" stroke="#10263f" stroke-width="4"/>
  </g>
</svg>
